<svg width="155" height="34" viewBox="0 0 155 34" fill="none" xmlns="http://www.w3.org/2000/svg">
<path d="M155 27.294H150.974L145.178 18.2352L142.609 20.6995V27.294H139.208V2.47781H142.609V17.0899L150.349 9.59295H154.271L147.468 16.0833L155 27.294Z" fill="#59836A"/>
<path d="M129.631 9.07266C132.893 9.07266 135.531 10.9469 135.531 15.0077V27.2943H132.13V15.9448C132.13 13.5847 131.088 11.9881 128.52 11.9881C125.604 11.9881 123.73 13.7582 123.73 16.4308V27.2943H120.329V9.59328H123.73V11.8146H123.8C124.737 10.461 126.576 9.07266 129.631 9.07266Z" fill="#59836A"/>
<path d="M116.753 6.43509H112.901V2.75604H116.753V6.43509ZM116.51 27.2946H113.109V9.59351H116.51V27.2946Z" fill="#59836A"/>
<path d="M110.693 27.294H94.3104V2.47781H98.1283V23.9968H110.693V27.294Z" fill="#59836A"/>
<path d="M78.8259 33.5075C78.0623 33.5075 77.5417 33.4381 76.6393 33.2645V30.4879C77.2294 30.5573 77.5417 30.592 78.0971 30.592C79.4507 30.592 81.0472 29.8979 81.7414 27.1212L74.5916 9.59369H78.3053L83.4768 23.1298H83.5462L88.4053 9.59369H91.9803L84.9692 27.7113C83.2685 32.0845 81.5679 33.5075 78.8259 33.5075Z" fill="#59836A"/>
<path d="M72.7197 27.294H69.3184V2.47781H72.7197V27.294Z" fill="#59836A"/>
<path d="M65.7427 6.43509H61.8901V2.75604H65.7427V6.43509ZM65.4998 27.2946H62.0984V9.59351H65.4998V27.2946Z" fill="#59836A"/>
<path d="M59.6808 27.294H43.2986V2.47781H47.1165V23.9968H59.6808V27.294Z" fill="#59836A"/>
<path d="M27.5351 3.02096C27.5351 1.35253 26.1826 1.75856e-06 24.5142 1.6127e-06L6.06702 0L6.06702 6.06443L19.9602 6.06444C20.7944 6.06444 21.4707 6.7407 21.4707 7.57491L21.4707 27.5325H27.5351L27.5351 3.02096Z" fill="url(#paint0_linear_3930_4094)"/>
<path d="M4.98552e-05 30.5766C4.97093e-05 32.245 1.35258 33.5976 3.02101 33.5976L21.4681 33.5976L21.4681 27.5331L7.57496 27.5331C6.74075 27.5331 6.06448 26.8569 6.06448 26.0226L6.06449 6.06503L5.39054e-05 6.06503L4.98552e-05 30.5766Z" fill="url(#paint1_linear_3930_4094)"/>
<defs>
<linearGradient id="paint0_linear_3930_4094" x1="30.4016" y1="-4.97146" x2="-41.1965" y2="48.83" gradientUnits="userSpaceOnUse">
<stop stop-color="#59836A"/>
<stop offset="1" stop-color="#EAF0EA"/>
</linearGradient>
<linearGradient id="paint1_linear_3930_4094" x1="21.4681" y1="8.29733" x2="-5.23444" y2="40.2622" gradientUnits="userSpaceOnUse">
<stop offset="0.121751" stop-color="#59836A"/>
<stop offset="1" stop-color="#EAF0EA"/>
</linearGradient>
</defs>
</svg>
